<svg xmlns="http://www.w3.org/2000/svg" xmlns:xlink="http://www.w3.org/1999/xlink" fill="none" version="1.1" width="32" height="32" viewBox="0 0 32 32"><defs><clipPath id="master_svg0_6_15826"><rect x="0" y="0" width="32" height="32" rx="0"/></clipPath></defs><g clip-path="url(#master_svg0_6_15826)"><g><path d="M0,16.39986337890625C0,23.37126337890625,4.45712,29.31406337890625,10.7428,31.48556337890625C11.5428,31.71406337890625,11.4285,31.14266337890625,11.4285,30.68556337890625L11.4285,27.94266337890625C6.62854,28.51406337890625,6.39997,25.31416337890625,6.05711,24.74266337890625C5.3714,23.59986337890625,3.88569,23.37126337890625,4.34283,22.79986337890625C5.48569,22.22846337890625,6.62854,22.91416337890625,7.88567,24.85696337890625C8.79996,26.22836337890625,10.6285,25.99986337890625,11.6571,25.77126337890625C11.8857,24.97126337890625,12.3428,24.17126337890625,12.9142,23.59986337890625C7.77139,22.79986337890625,5.71426,19.71416337890625,5.71426,16.05706337890625C5.71426,14.34276337890625,6.28568,12.62846337890625,7.42853,11.37136337890625C6.62854,9.19992337890625,7.42853,7.25707337890625,7.54282,7.02850337890625C9.59995,6.79993337890625,11.7714,8.51420337890625,11.9999,8.62849337890625C13.1428,8.285633378906251,14.5142,8.17135337890625,15.9999,8.17135337890625C17.4856,8.17135337890625,18.857,8.39992337890625,19.9999,8.62849337890625C20.457,8.285633378906251,22.3999,6.91421337890625,24.3427,7.02850337890625C24.457,7.25707337890625,25.257,9.08563337890625,24.5713,11.25706337890625C25.7142,12.62846337890625,26.2856,14.22846337890625,26.2856,15.94276337890625C26.2856,19.59986337890625,24.2284,22.68556337890625,19.0856,23.59986337890625C19.8856,24.39986337890625,20.457,25.54266337890625,20.457,26.91406337890625L20.457,30.91406337890625C20.457,31.25696337890625,20.457,31.59976337890625,21.0285,31.59976337890625C27.4284,29.42836337890625,31.9998,23.48556337890625,31.9998,16.39986337890625C31.9998,7.59992337890625,24.7999,0.39996337890625,15.9999,0.39996337890625C7.19996,0.39996337890625,0,7.59992337890625,0,16.39986337890625Z" fill="#040000" fill-opacity="1"/></g></g></svg>