<svg xmlns="http://www.w3.org/2000/svg" xmlns:xlink="http://www.w3.org/1999/xlink" fill="none" version="1.1" width="32" height="32" viewBox="0 0 32 32"><defs><clipPath id="master_svg0_6_6830"><rect x="0" y="0" width="32" height="32" rx="0"/></clipPath></defs><g clip-path="url(#master_svg0_6_6830)"><g><g><path d="M21.031476130981446,23.371172802615163L22.678056130981446,22.200172802615164L24.507566130981445,22.200172802615164L24.507566130981445,10.197872802615166L19.531206130981445,10.197872802615166L19.531206130981445,22.236972802615163L20.775296130981445,22.236972802615163L21.031476130981446,23.371172802615163Z" fill="#0066FF" fill-opacity="1"/></g><g><path d="M27.7333,-3.850708008043e-13L10.9821,-3.129243850708008e-7Q9.2265,-3.129243850708008e-7,3.99141,0.0000408163756149292C1.78228,0.0000581722756149292,0,1.790909687075615,0,4.000039687075615L0,27.999999687075615C0,30.209099687075614,1.78898,31.999999687075615,3.99812,31.999999687075615Q10.1024,31.999999687075615,11.9198,31.999999687075615L28,31.999999687075615C30.2091,31.999999687075615,32,30.224699687075613,32,28.015599687075614Q32,22.445099687075615,32,20.663099687075615L32,3.999949687075615C32,1.790849687075615,30.2236,0.000002790865614929199,28.0145,1.660826149291992e-7Q27.8747,-3.850708008043e-13,27.7333,-3.850708008043e-13ZM15.4327,26.116299687075614L11.9198,20.663099687075615L13.4569,19.565299687075616L15.7989,22.968399687075614C15.7988,22.968399687075614,16.6037,24.287599687075616,15.4327,26.116299687075614ZM16.7867,16.529399687075614L16.7867,17.407599687075614L12.3957,17.407599687075614Q10.6393,28.641199687075616,5.33333,26.244599687075613Q10.2002,22.429899687075615,10.2916,17.407599687075614L5.46151,17.407599687075614Q5.46151,15.395199687075616,7.27271,15.431499687075615L10.5294,15.431499687075615L10.5294,10.162099687075616L8.77298,10.162099687075616Q8.11449,13.126199687075616,5.33333,12.979899687075616Q6.46773,11.223499687075615,7.23609,8.222929687075615Q8.00444,5.222219687075615,10.3463,5.551819687075615Q9.6512,6.795909687075615,9.32178,8.222929687075615L15.0667,8.222929687075615Q16.4572,8.222929687075615,16.384,9.101159687075615L16.384,10.125899687075615L12.5054,10.125899687075615L12.5054,15.431599687075614L15.6889,15.431599687075614Q16.8599,15.431599687075614,16.7867,16.529399687075614ZM26.6667,24.177099687075614L23.1172,24.177099687075614L20.0436,26.116299687075614L19.7509,24.177099687075614L17.5186,24.177099687075614L17.5186,8.222749687075614L26.6667,8.222749687075614L26.6667,24.177099687075614Z" fill="#0066FF" fill-opacity="1"/></g></g></g></svg>